<svg xmlns="http://www.w3.org/2000/svg" fill="none" viewBox="0 0 24 24" id="focus"><path fill="currentColor" fill-rule="evenodd" d="M3.5 5C3.5 4.17157 4.17157 3.5 5 3.5H7.55556C7.8317 3.5 8.05556 3.72386 8.05556 4 8.05556 4.27614 7.8317 4.5 7.55556 4.5H5C4.72386 4.5 4.5 4.72386 4.5 5V7.55556C4.5 7.8317 4.27614 8.05556 4 8.05556 3.72386 8.05556 3.5 7.8317 3.5 7.55556V5zM15.9444 4C15.9444 3.72386 16.1683 3.5 16.4444 3.5H19C19.8284 3.5 20.5 4.17157 20.5 5V7.55556C20.5 7.8317 20.2761 8.05556 20 8.05556 19.7239 8.05556 19.5 7.8317 19.5 7.55556V5C19.5 4.72386 19.2761 4.5 19 4.5H16.4444C16.1683 4.5 15.9444 4.27614 15.9444 4zM4 15.9444C4.27614 15.9444 4.5 16.1683 4.5 16.4444V19C4.5 19.2761 4.72386 19.5 5 19.5H7.55556C7.8317 19.5 8.05556 19.7239 8.05556 20 8.05556 20.2761 7.8317 20.5 7.55556 20.5H5C4.17157 20.5 3.5 19.8284 3.5 19V16.4444C3.5 16.1683 3.72386 15.9444 4 15.9444zM20 15.9444C20.2761 15.9444 20.5 16.1683 20.5 16.4444V19C20.5 19.8284 19.8284 20.5 19 20.5H16.4444C16.1683 20.5 15.9444 20.2761 15.9444 20 15.9444 19.7239 16.1683 19.5 16.4444 19.5H19C19.2761 19.5 19.5 19.2761 19.5 19V16.4444C19.5 16.1683 19.7239 15.9444 20 15.9444zM12 8.5C10.067 8.5 8.5 10.067 8.5 12 8.5 13.933 10.067 15.5 12 15.5 13.933 15.5 15.5 13.933 15.5 12 15.5 10.067 13.933 8.5 12 8.5zM7.5 12C7.5 9.51472 9.51472 7.5 12 7.5 14.4853 7.5 16.5 9.51472 16.5 12 16.5 14.4853 14.4853 16.5 12 16.5 9.51472 16.5 7.5 14.4853 7.5 12z" clip-rule="evenodd"></path></svg>
